<svg width="15" height="15" viewBox="0 0 15 15" fill="none" xmlns="http://www.w3.org/2000/svg">
<g clip-path="url(#clip0)">
<path d="M14.9608 5.66796C14.8628 5.35086 14.5936 5.12663 14.2748 5.09592L9.94513 4.68543L8.23311 0.503874C8.107 0.197754 7.81949 0 7.50003 0C7.18046 0 6.89295 0.198379 6.76684 0.505248L5.05494 4.68618L0.724569 5.09655C0.406429 5.12663 0.137224 5.35086 0.039114 5.66796C-0.0594747 5.98507 0.0319352 6.33201 0.272425 6.55162L3.54548 9.54615L2.58029 13.9814C2.50981 14.3074 2.63126 14.6441 2.89077 14.8404C3.0292 14.9468 3.19324 15 3.35727 15C3.49905 15 3.64024 14.9605 3.76634 14.8814L7.50003 12.5517L11.233 14.8808C11.5062 15.0518 11.8505 15.0368 12.1093 14.8412C12.3687 14.6448 12.4903 14.308 12.4197 13.982L11.4546 9.5469L14.7276 6.55224C14.968 6.33276 15.0595 5.98569 14.9608 5.66796Z" fill="#FFA900"/>
</g>
<defs>
<clipPath id="clip0">
<rect width="15" height="15" fill="white"/>
</clipPath>
</defs>
</svg>
