<svg width="75" height="20" viewBox="0 0 75 20" fill="none" xmlns="http://www.w3.org/2000/svg">
<path d="M3.19922 9.99023V15H0.269531V0.78125H5.81641C6.88411 0.78125 7.82161 0.976562 8.62891 1.36719C9.44271 1.75781 10.0677 2.31445 10.5039 3.03711C10.9401 3.75326 11.1582 4.57031 11.1582 5.48828C11.1582 6.88151 10.6797 7.98177 9.72266 8.78906C8.77214 9.58984 7.45378 9.99023 5.76758 9.99023H3.19922ZM3.19922 7.61719H5.81641C6.59115 7.61719 7.18034 7.4349 7.58398 7.07031C7.99414 6.70573 8.19922 6.1849 8.19922 5.50781C8.19922 4.8112 7.99414 4.24805 7.58398 3.81836C7.17383 3.38867 6.60742 3.16732 5.88477 3.1543H3.19922V7.61719Z" fill="#FF7600"/>
<path d="M18.4434 9.79492H16.1094V15H13.1797V0.78125H18.4629C20.1426 0.78125 21.4382 1.1556 22.3496 1.9043C23.2611 2.65299 23.7168 3.71094 23.7168 5.07812C23.7168 6.04818 23.5052 6.85872 23.082 7.50977C22.6654 8.1543 22.0306 8.66862 21.1777 9.05273L24.2539 14.8633V15H21.1094L18.4434 9.79492ZM16.1094 7.42188H18.4727C19.2083 7.42188 19.778 7.23633 20.1816 6.86523C20.5853 6.48763 20.7871 5.97005 20.7871 5.3125C20.7871 4.64193 20.5951 4.11458 20.2109 3.73047C19.8333 3.34635 19.2507 3.1543 18.4629 3.1543H16.1094V7.42188ZM31.8906 15C31.7604 14.7461 31.666 14.4303 31.6074 14.0527C30.9238 14.8145 30.0352 15.1953 28.9414 15.1953C27.9062 15.1953 27.0469 14.8958 26.3633 14.2969C25.6862 13.6979 25.3477 12.9427 25.3477 12.0312C25.3477 10.9115 25.7611 10.0521 26.5879 9.45312C27.4212 8.85417 28.6224 8.55143 30.1914 8.54492H31.4902V7.93945C31.4902 7.45117 31.3633 7.06055 31.1094 6.76758C30.862 6.47461 30.4681 6.32812 29.9277 6.32812C29.4525 6.32812 29.0781 6.44206 28.8047 6.66992C28.5378 6.89779 28.4043 7.21029 28.4043 7.60742H25.582C25.582 6.99544 25.7708 6.42904 26.1484 5.9082C26.526 5.38737 27.0599 4.98047 27.75 4.6875C28.4401 4.38802 29.2148 4.23828 30.0742 4.23828C31.3763 4.23828 32.4082 4.56706 33.1699 5.22461C33.9382 5.87565 34.3223 6.79362 34.3223 7.97852V12.5586C34.3288 13.5612 34.4688 14.3197 34.7422 14.834V15H31.8906ZM29.5566 13.0371C29.9733 13.0371 30.3574 12.946 30.709 12.7637C31.0605 12.5749 31.321 12.3242 31.4902 12.0117V10.1953H30.4355C29.0228 10.1953 28.2708 10.6836 28.1797 11.6602L28.1699 11.8262C28.1699 12.1777 28.2936 12.4674 28.541 12.6953C28.7884 12.9232 29.127 13.0371 29.5566 13.0371ZM39.8691 1.83594V4.43359H41.6758V6.50391H39.8691V11.7773C39.8691 12.168 39.944 12.4479 40.0938 12.6172C40.2435 12.7865 40.5299 12.8711 40.9531 12.8711C41.2656 12.8711 41.5423 12.8483 41.7832 12.8027V14.9414C41.2298 15.1107 40.6602 15.1953 40.0742 15.1953C38.0951 15.1953 37.0859 14.196 37.0469 12.1973V6.50391H35.5039V4.43359H37.0469V1.83594H39.8691ZM46.2266 15H43.3945V4.43359H46.2266V15ZM43.2285 1.69922C43.2285 1.27604 43.3685 0.927734 43.6484 0.654297C43.9349 0.380859 44.3223 0.244141 44.8105 0.244141C45.2923 0.244141 45.6764 0.380859 45.9629 0.654297C46.2493 0.927734 46.3926 1.27604 46.3926 1.69922C46.3926 2.12891 46.2461 2.48047 45.9531 2.75391C45.6667 3.02734 45.2858 3.16406 44.8105 3.16406C44.3353 3.16406 43.9512 3.02734 43.6582 2.75391C43.3717 2.48047 43.2285 2.12891 43.2285 1.69922ZM51.1582 4.43359L51.2461 5.6543C52.0013 4.71029 53.0137 4.23828 54.2832 4.23828C55.403 4.23828 56.2363 4.56706 56.7832 5.22461C57.3301 5.88216 57.61 6.86523 57.623 8.17383V15H54.8008V8.24219C54.8008 7.64323 54.6706 7.21029 54.4102 6.94336C54.1497 6.66992 53.7168 6.5332 53.1113 6.5332C52.3171 6.5332 51.7214 6.87174 51.3242 7.54883V15H48.502V4.43359H51.1582ZM59.3613 9.63867C59.3613 8.01758 59.7454 6.71224 60.5137 5.72266C61.2884 4.73307 62.3301 4.23828 63.6387 4.23828C64.7975 4.23828 65.6992 4.63542 66.3438 5.42969L66.4609 4.43359H69.0195V14.6484C69.0195 15.5729 68.8079 16.377 68.3848 17.0605C67.9681 17.7441 67.3789 18.265 66.6172 18.623C65.8555 18.9811 64.9635 19.1602 63.9414 19.1602C63.1667 19.1602 62.4115 19.0039 61.6758 18.6914C60.9401 18.3854 60.3835 17.9883 60.0059 17.5L61.2559 15.7812C61.959 16.569 62.8118 16.9629 63.8145 16.9629C64.5632 16.9629 65.1458 16.7611 65.5625 16.3574C65.9792 15.9603 66.1875 15.3939 66.1875 14.6582V14.0918C65.5365 14.8275 64.6803 15.1953 63.6191 15.1953C62.3496 15.1953 61.321 14.7005 60.5332 13.7109C59.752 12.7148 59.3613 11.3965 59.3613 9.75586V9.63867ZM62.1836 9.84375C62.1836 10.8008 62.3757 11.5527 62.7598 12.0996C63.1439 12.64 63.6712 12.9102 64.3418 12.9102C65.2012 12.9102 65.8164 12.5879 66.1875 11.9434V7.5C65.8099 6.85547 65.2012 6.5332 64.3613 6.5332C63.6842 6.5332 63.1504 6.8099 62.7598 7.36328C62.3757 7.91667 62.1836 8.74349 62.1836 9.84375Z" fill="#52006A"/>
<path d="M71.3438 13.6133C71.3438 13.1641 71.4935 12.7995 71.793 12.5195C72.099 12.2396 72.4798 12.0996 72.9355 12.0996C73.3978 12.0996 73.7786 12.2396 74.0781 12.5195C74.3841 12.7995 74.5371 13.1641 74.5371 13.6133C74.5371 14.056 74.3874 14.4173 74.0879 14.6973C73.7884 14.9707 73.4043 15.1074 72.9355 15.1074C72.4733 15.1074 72.0924 14.9707 71.793 14.6973C71.4935 14.4173 71.3438 14.056 71.3438 13.6133Z" fill="#FFA900"/>
</svg>
