<svg width="15" height="15" viewBox="0 0 15 15" fill="none" xmlns="http://www.w3.org/2000/svg">
<g clip-path="url(#clip0)">
<path d="M3.35732 14.6967C3.19298 14.6967 3.02978 14.6454 2.89051 14.5447C2.63106 14.3567 2.50986 14.0335 2.58048 13.7216L3.54547 9.47085L0.272828 6.60082C0.032267 6.39082 -0.0596315 6.05825 0.0391337 5.75394C0.137899 5.45021 0.406613 5.23517 0.724768 5.20575L5.05487 4.81264L6.76684 0.806304C6.89307 0.511954 7.18055 0.321863 7.49996 0.321863C7.81938 0.321863 8.10686 0.511954 8.23309 0.805617L9.94506 4.81264L14.2745 5.20575C14.5933 5.23448 14.862 5.45021 14.9608 5.75394C15.0596 6.05767 14.9682 6.39082 14.7277 6.60082L11.455 9.47028L12.42 13.7209C12.4908 14.0335 12.3694 14.3567 12.1101 14.5441C11.8514 14.7316 11.5063 14.746 11.2338 14.5823L7.49996 12.3509L3.76612 14.5835C3.63988 14.6585 3.49923 14.6967 3.35732 14.6967ZM7.49996 11.3897C7.64188 11.3897 7.78241 11.4278 7.90876 11.5028L11.4326 13.6104L10.5219 9.59834C10.4569 9.3128 10.5538 9.01467 10.7744 8.82149L13.8645 6.11146L9.77626 5.74021C9.4819 5.71331 9.22875 5.52826 9.11374 5.25703L7.49996 1.47626L5.88424 5.2576C5.77049 5.527 5.51734 5.71205 5.22367 5.73895L1.13482 6.1102L4.22481 8.82023C4.44614 9.01399 4.54296 9.31154 4.47739 9.59777L3.56733 13.6097L7.09117 11.5028C7.2174 11.4278 7.35805 11.3897 7.49996 11.3897ZM5.02179 4.89012C5.02179 4.89012 5.02179 4.8908 5.02111 4.89138L5.02179 4.89012ZM9.97688 4.88829L9.97756 4.88955C9.97756 4.88886 9.97756 4.88886 9.97688 4.88829Z" fill="#FFA900"/>
</g>
<defs>
<clipPath id="clip0">
<rect width="15" height="15" fill="white"/>
</clipPath>
</defs>
</svg>
